<svg id="Ñëîé_1" data-name="Ñëîé 1" xmlns="http://www.w3.org/2000/svg" viewBox="0 0 939.57 1098.89"><defs><style>.cls-1{fill:#c00;}.cls-2{fill:#3669a5;}</style></defs><title>zuid Drecht Nopayoff</title><path class="cls-1" d="M576,967.11c-56,41.39-101.43,66.05-111,71.11a4,4,0,0,1-3.72,0c-25.57-13.5-307.48-167-361.37-406a4,4,0,0,1,7.38-2.81c38.54,68.93,125.37,119.26,187.51,152.69,52.5,28.23,113.62,50.21,168.34,80.36C508.22,887.29,549,917.69,577,961.75A4,4,0,0,1,576,967.11Z"/><path class="cls-1" d="M834.71,215.84V101.65a8.9,8.9,0,0,0-8.9-8.91h-273A14.59,14.59,0,0,0,539.43,103l-19,70.28a14.58,14.58,0,0,1-13.35,10.21H383V147.12c36.84-1.34,62.42-7.45,80.16-15.1,29.49-12.74,37.35-29.78,39.36-36.44a2.22,2.22,0,0,0-2.13-2.84H334.61c-33.88,0-67.91,9.2-86.08,40.1-19.38,32.94-18.24,78.07-16.49,114.89,0,0-50-66.22-40.76-148.87a5.51,5.51,0,0,0-5.48-6.12H100.32a8.79,8.79,0,0,0-8.78,8.79V124c4.86,79.26,49.14,288.57,371.58,385.4C735,591.06,775.42,716.3,783.32,738.24a1.38,1.38,0,0,0,2.53.17c75.3-143.9-81.49-247.52-81.49-247.52,31.33,0,79.23,17.94,118,39.79a8.28,8.28,0,0,0,12.37-7.21V363.83a14.6,14.6,0,0,0-18.15-14.17c-13.5,3.39-30,6.68-32.87,7.23-39.46,7.77-84.75,11.15-122-8.73s-47.26-66.27-18.33-98.23c25.3-28,65.53-37.5,102.29-35,23.56,1.62,55.18,7.59,73.71,12.63A12.16,12.16,0,0,0,834.71,215.84Z"/><path class="cls-2" d="M654.87,901.5a4,4,0,0,1-6-.11c-13.56-16.25-75.46-86-185.73-146.42A756.44,756.44,0,0,0,383,717c-173.53-70.17-282.69-143.3-291.42-338.1v-6.22a4,4,0,0,1,7.21-2.34c63.61,87,144.69,137.9,243.16,186.77,40.28,20,81.17,36.32,121.21,53.25,66.15,28,130,57.54,184.73,107.8,16.18,14.85,29.09,29.15,36.81,50C695.75,798.13,702.55,849.17,654.87,901.5Z"/></svg>